<?xml version="1.0" encoding="UTF-8"?>
<svg xmlns="http://www.w3.org/2000/svg" width="1080" height="600" viewBox="0 0 1080 600">
  <rect x="0" y="0" width="1080" height="600" fill="#FFFFFF" />
  <text x="540" y="30" font-family="sans-serif" font-size="16" fill="#111" text-anchor="middle" font-weight="bold">Joint hypersphere sketch: normalized overlap-grid error (Precision12, Bits6)</text>
  <text x="540" y="50" font-family="sans-serif" font-size="12" fill="#555" text-anchor="middle" font-weight="normal">Random spheres, 500,000 per layer from 0..10,000,000; mean +/-1 std over 16 seeds, equal weight per cell.</text>
  <rect x="72" y="80" width="460" height="442" fill="#F8F9FA" stroke="#CCC" stroke-width="1" rx="4" />
  <text x="302" y="68" font-family="sans-serif" font-size="13" fill="#333" text-anchor="middle" font-weight="bold">(a) error / exact shell maximum</text>
  <line x1="72" y1="510.0" x2="532" y2="510.0" stroke="#E3E6EA" stroke-width="1" />
  <text x="64" y="514.0" font-family="sans-serif" font-size="10" fill="#777" text-anchor="end" font-weight="normal">0</text>
  <line x1="72" y1="405.0" x2="532" y2="405.0" stroke="#E3E6EA" stroke-width="1" />
  <text x="64" y="409.0" font-family="sans-serif" font-size="10" fill="#777" text-anchor="end" font-weight="normal">0.005</text>
  <line x1="72" y1="300.0" x2="532" y2="300.0" stroke="#E3E6EA" stroke-width="1" />
  <text x="64" y="304.0" font-family="sans-serif" font-size="10" fill="#777" text-anchor="end" font-weight="normal">0.01</text>
  <line x1="72" y1="195.0" x2="532" y2="195.0" stroke="#E3E6EA" stroke-width="1" />
  <text x="64" y="199.0" font-family="sans-serif" font-size="10" fill="#777" text-anchor="end" font-weight="normal">0.015</text>
  <line x1="72" y1="90.0" x2="532" y2="90.0" stroke="#E3E6EA" stroke-width="1" />
  <text x="64" y="94.0" font-family="sans-serif" font-size="10" fill="#777" text-anchor="end" font-weight="normal">0.02</text>
  <text x="106.0" y="540" font-family="sans-serif" font-size="10" fill="#777" text-anchor="middle" font-weight="normal">1</text>
  <text x="207.0" y="540" font-family="sans-serif" font-size="10" fill="#777" text-anchor="middle" font-weight="normal">2</text>
  <text x="308.0" y="540" font-family="sans-serif" font-size="10" fill="#777" text-anchor="middle" font-weight="normal">3</text>
  <text x="409.0" y="540" font-family="sans-serif" font-size="10" fill="#777" text-anchor="middle" font-weight="normal">4</text>
  <text x="510.0" y="540" font-family="sans-serif" font-size="10" fill="#777" text-anchor="middle" font-weight="normal">5</text>
  <text x="302" y="560" font-family="sans-serif" font-size="11" fill="#555" text-anchor="middle" font-weight="normal">M = N (nested layers)</text>
  <polygon points="106.0,92.9 207.0,231.6 308.0,219.2 409.0,220.9 510.0,229.4 510.0,275.6 409.0,299.0 308.0,331.1 207.0,353.3 106.0,394.9" fill="#2E86AB" fill-opacity="0.16" stroke="none" />
  <polygon points="106.0,264.7 207.0,286.3 308.0,359.0 409.0,366.5 510.0,362.8 510.0,406.2 409.0,425.3 308.0,450.8 207.0,486.2 106.0,509.0" fill="#E8871E" fill-opacity="0.16" stroke="none" />
  <polygon points="106.0,266.6 207.0,367.2 308.0,395.0 409.0,392.4 510.0,387.1 510.0,413.3 409.0,427.6 308.0,441.3 207.0,454.4 106.0,510.0" fill="#D62246" fill-opacity="0.16" stroke="none" />
  <polyline points="106.0,243.9 207.0,292.5 308.0,275.2 409.0,259.9 510.0,252.5" fill="none" stroke="#2E86AB" stroke-width="2.5" />
  <circle cx="106.0" cy="243.9" r="3" fill="#2E86AB" />
  <circle cx="207.0" cy="292.5" r="3" fill="#2E86AB" />
  <circle cx="308.0" cy="275.2" r="3" fill="#2E86AB" />
  <circle cx="409.0" cy="259.9" r="3" fill="#2E86AB" />
  <circle cx="510.0" cy="252.5" r="3" fill="#2E86AB" />
  <polyline points="106.0,386.9 207.0,386.2 308.0,404.9 409.0,395.9 510.0,384.5" fill="none" stroke="#E8871E" stroke-width="2.5" />
  <circle cx="106.0" cy="386.9" r="3" fill="#E8871E" />
  <circle cx="207.0" cy="386.2" r="3" fill="#E8871E" />
  <circle cx="308.0" cy="404.9" r="3" fill="#E8871E" />
  <circle cx="409.0" cy="395.9" r="3" fill="#E8871E" />
  <circle cx="510.0" cy="384.5" r="3" fill="#E8871E" />
  <polyline points="106.0,389.1 207.0,410.8 308.0,418.1 409.0,410.0 510.0,400.2" fill="none" stroke="#D62246" stroke-width="2.5" />
  <circle cx="106.0" cy="389.1" r="3" fill="#D62246" />
  <circle cx="207.0" cy="410.8" r="3" fill="#D62246" />
  <circle cx="308.0" cy="418.1" r="3" fill="#D62246" />
  <circle cx="409.0" cy="410.0" r="3" fill="#D62246" />
  <circle cx="510.0" cy="400.2" r="3" fill="#D62246" />
  <rect x="596" y="80" width="460" height="442" fill="#F8F9FA" stroke="#CCC" stroke-width="1" rx="4" />
  <text x="826" y="68" font-family="sans-serif" font-size="13" fill="#333" text-anchor="middle" font-weight="bold">(b) self-normalized vs exact-normalized</text>
  <line x1="596" y1="510.0" x2="1056" y2="510.0" stroke="#E3E6EA" stroke-width="1" />
  <text x="588" y="514.0" font-family="sans-serif" font-size="10" fill="#777" text-anchor="end" font-weight="normal">0</text>
  <line x1="596" y1="405.0" x2="1056" y2="405.0" stroke="#E3E6EA" stroke-width="1" />
  <text x="588" y="409.0" font-family="sans-serif" font-size="10" fill="#777" text-anchor="end" font-weight="normal">0.0075</text>
  <line x1="596" y1="300.0" x2="1056" y2="300.0" stroke="#E3E6EA" stroke-width="1" />
  <text x="588" y="304.0" font-family="sans-serif" font-size="10" fill="#777" text-anchor="end" font-weight="normal">0.015</text>
  <line x1="596" y1="195.0" x2="1056" y2="195.0" stroke="#E3E6EA" stroke-width="1" />
  <text x="588" y="199.0" font-family="sans-serif" font-size="10" fill="#777" text-anchor="end" font-weight="normal">0.0225</text>
  <line x1="596" y1="90.0" x2="1056" y2="90.0" stroke="#E3E6EA" stroke-width="1" />
  <text x="588" y="94.0" font-family="sans-serif" font-size="10" fill="#777" text-anchor="end" font-weight="normal">0.03</text>
  <text x="630.0" y="540" font-family="sans-serif" font-size="10" fill="#777" text-anchor="middle" font-weight="normal">1</text>
  <text x="731.0" y="540" font-family="sans-serif" font-size="10" fill="#777" text-anchor="middle" font-weight="normal">2</text>
  <text x="832.0" y="540" font-family="sans-serif" font-size="10" fill="#777" text-anchor="middle" font-weight="normal">3</text>
  <text x="933.0" y="540" font-family="sans-serif" font-size="10" fill="#777" text-anchor="middle" font-weight="normal">4</text>
  <text x="1034.0" y="540" font-family="sans-serif" font-size="10" fill="#777" text-anchor="middle" font-weight="normal">5</text>
  <text x="826" y="560" font-family="sans-serif" font-size="11" fill="#555" text-anchor="middle" font-weight="normal">M = N (nested layers)</text>
  <polygon points="630.0,224.3 731.0,323.1 832.0,314.1 933.0,315.3 1034.0,320.5 1034.0,350.9 933.0,366.7 832.0,389.5 731.0,402.4 630.0,429.5" fill="#2E86AB" fill-opacity="0.16" stroke="none" />
  <polygon points="630.0,344.4 731.0,358.2 832.0,407.7 933.0,413.4 1034.0,409.3 1034.0,439.6 933.0,451.7 832.0,470.2 731.0,493.3 630.0,509.6" fill="#E8871E" fill-opacity="0.16" stroke="none" />
  <polygon points="630.0,345.6 731.0,413.3 832.0,431.3 933.0,430.1 1034.0,426.1 1034.0,444.5 933.0,453.0 832.0,462.4 731.0,470.6 630.0,510.0" fill="#D62246" fill-opacity="0.16" stroke="none" />
  <polyline points="630.0,326.9 731.0,362.8 832.0,351.8 933.0,341.0 1034.0,335.7" fill="none" stroke="#2E86AB" stroke-width="2.5" />
  <circle cx="630.0" cy="326.9" r="3" fill="#2E86AB" />
  <circle cx="731.0" cy="362.8" r="3" fill="#2E86AB" />
  <circle cx="832.0" cy="351.8" r="3" fill="#2E86AB" />
  <circle cx="933.0" cy="341.0" r="3" fill="#2E86AB" />
  <circle cx="1034.0" cy="335.7" r="3" fill="#2E86AB" />
  <polyline points="630.0,427.0 731.0,425.7 832.0,439.0 933.0,432.5 1034.0,424.5" fill="none" stroke="#E8871E" stroke-width="2.5" />
  <circle cx="630.0" cy="427.0" r="3" fill="#E8871E" />
  <circle cx="731.0" cy="425.7" r="3" fill="#E8871E" />
  <circle cx="832.0" cy="439.0" r="3" fill="#E8871E" />
  <circle cx="933.0" cy="432.5" r="3" fill="#E8871E" />
  <circle cx="1034.0" cy="424.5" r="3" fill="#E8871E" />
  <polyline points="630.0,428.5 731.0,441.9 832.0,446.9 933.0,441.5 1034.0,435.3" fill="none" stroke="#D62246" stroke-width="2.5" />
  <circle cx="630.0" cy="428.5" r="3" fill="#D62246" />
  <circle cx="731.0" cy="441.9" r="3" fill="#D62246" />
  <circle cx="832.0" cy="446.9" r="3" fill="#D62246" />
  <circle cx="933.0" cy="441.5" r="3" fill="#D62246" />
  <circle cx="1034.0" cy="435.3" r="3" fill="#D62246" />
  <line x1="72" y1="570" x2="98" y2="570" stroke="#2E86AB" stroke-width="3" />
  <text x="104" y="574" font-family="sans-serif" font-size="11" fill="#333" text-anchor="start" font-weight="normal">pairwise (HLL++)</text>
  <line x1="240" y1="570" x2="266" y2="570" stroke="#E8871E" stroke-width="3" />
  <text x="272" y="574" font-family="sans-serif" font-size="11" fill="#333" text-anchor="start" font-weight="normal">2-set MLE (repeated)</text>
  <line x1="436" y1="570" x2="462" y2="570" stroke="#D62246" stroke-width="3" />
  <text x="468" y="574" font-family="sans-serif" font-size="11" fill="#333" text-anchor="start" font-weight="normal">joint MLE</text>
  <text x="540" y="592" font-family="sans-serif" font-size="10" fill="#999" text-anchor="middle" font-weight="normal">Measured on AMD Ryzen Threadripper PRO 5975WX, release build.</text>
</svg>